<?xml version="1.0" encoding="utf-8"?>
<!-- Generator: Adobe Illustrator 23.1.0, SVG Export Plug-In . SVG Version: 6.00 Build 0)  -->
<svg version="1.1" id="图层_1" xmlns="http://www.w3.org/2000/svg" xmlns:xlink="http://www.w3.org/1999/xlink" x="0px" y="0px"
	 viewBox="0 0 330 123" style="enable-background:new 0 0 330 123;" xml:space="preserve">
<style type="text/css">
	.st0{fill:#4285F4;}
</style>
<g>
	<path class="st0" d="M12.4,51.8v33.9H1.6V2h28.5c7.3,0,13.4,2.4,18.5,7.3c5.1,4.8,7.7,10.7,7.7,17.7c0,7.1-2.6,13-7.7,17.8
		c-5,4.8-11.2,7.1-18.5,7.1H12.4z M12.4,12.3v29.2h18c4.3,0,7.8-1.4,10.6-4.3c2.9-2.9,4.3-6.3,4.3-10.3c0-3.9-1.4-7.3-4.3-10.2
		c-2.8-3-6.4-4.4-10.6-4.4H12.4z"/>
	<path class="st0" d="M79.7,8.7c0,2.1-0.7,3.9-2.2,5.4c-1.5,1.5-3.3,2.2-5.4,2.2c-2.1,0-3.9-0.7-5.4-2.2c-1.5-1.5-2.2-3.3-2.2-5.4
		c0-2.1,0.7-3.9,2.2-5.4c1.5-1.5,3.3-2.2,5.4-2.2c2.1,0,3.9,0.7,5.4,2.2C78.9,4.8,79.7,6.6,79.7,8.7z M77.4,28.4v57.3H66.7V28.4
		H77.4z"/>
	<path class="st0" d="M117.1,87.6c-8.5,0-15.6-2.9-21.2-8.7c-5.5-5.9-8.3-13.2-8.3-21.9c0-8.8,2.8-16.1,8.3-21.9
		c5.6-5.8,12.7-8.7,21.2-8.7c5.8,0,11,1.5,15.3,4.4c4.4,2.9,7.6,7,9.8,12.1l-9.8,4.1c-3-7.2-8.4-10.8-16-10.8c-4.9,0-9.2,2-12.8,6
		c-3.5,4-5.3,8.9-5.3,14.7c0,5.9,1.8,10.8,5.3,14.7c3.6,4,7.8,6,12.8,6c7.9,0,13.4-3.6,16.6-10.8l9.6,4.1c-2.1,5.1-5.4,9.2-9.9,12.1
		C128.2,86.2,123,87.6,117.1,87.6z"/>
	<path class="st0" d="M177.1,87.6c-8.4,0-15.4-2.9-20.8-8.7c-5.5-5.8-8.2-13.1-8.2-21.9c0-8.7,2.7-16,8-21.8
		c5.3-5.8,12.1-8.7,20.4-8.7c8.5,0,15.3,2.7,20.3,8.2c5,5.5,7.5,13.2,7.5,23.1l-0.1,1.2h-45c0.2,5.6,2,10.1,5.6,13.6
		c3.6,3.4,7.9,5.1,12.9,5.1c6.9,0,12.2-3.4,16.1-10.3l9.6,4.7c-2.6,4.8-6.1,8.6-10.7,11.3C188,86.3,182.9,87.6,177.1,87.6z
		 M159.9,50.2h32.9c-0.3-4-1.9-7.3-4.9-9.9c-2.9-2.6-6.8-3.9-11.8-3.9c-4.1,0-7.5,1.2-10.5,3.7C162.8,42.6,160.8,46,159.9,50.2z"/>
	<path class="st0" d="M214.1,28.4h10.3v8h0.5c1.6-2.8,4.2-5.1,7.5-7c3.4-1.9,6.9-2.8,10.6-2.8c7,0,12.4,2,16.2,6
		c3.8,4,5.7,9.7,5.7,17.1v36h-10.8V50.4c-0.2-9.4-5-14-14.2-14c-4.3,0-7.9,1.7-10.8,5.2c-2.9,3.5-4.3,7.6-4.3,12.5v31.7h-10.8V28.4z
		"/>
	<path class="st0" d="M303.7,87.6c-8.5,0-15.6-2.9-21.2-8.7c-5.5-5.9-8.3-13.2-8.3-21.9c0-8.8,2.8-16.1,8.3-21.9
		c5.6-5.8,12.7-8.7,21.2-8.7c5.8,0,11,1.5,15.3,4.4c4.4,2.9,7.6,7,9.8,12.1l-9.8,4.1c-3-7.2-8.4-10.8-16-10.8c-4.9,0-9.2,2-12.8,6
		c-3.5,4-5.3,8.9-5.3,14.7c0,5.9,1.8,10.8,5.3,14.7c3.6,4,7.8,6,12.8,6c7.9,0,13.4-3.6,16.6-10.8l9.6,4.1c-2.1,5.1-5.4,9.2-9.9,12.1
		C314.8,86.2,309.6,87.6,303.7,87.6z"/>
</g>
<g>
	<path class="st0" d="M209.3,114.8v1.7h-1.6c0.1-1,0.1-2.3,0.1-4V98c0-0.8,0-1.7-0.1-3c0.4,0.1,3.5,0.1,9.6,0.1c6,0,9.2,0,9.6-0.1
		c-0.1,1.1-0.1,2.1-0.1,3v14.3c0,1.2,0,2.6,0.1,4h-1.6v-1.6H209.3z M225.3,113.5V96.4h-16v17.1H225.3z M217.5,103.6
		c1.3-1,2.3-2.2,3.1-3.5h-5.9c-0.9,1.3-1.9,2.5-3.2,3.7c-0.4-0.5-0.8-0.8-1.4-1c2.2-1.6,3.9-3.6,5-6.2c0.4,0.4,0.8,0.6,1.2,0.6
		s0.5,0.2,0.5,0.3s-0.1,0.2-0.4,0.3c-0.3,0.1-0.6,0.5-1.1,1.2h3c2,0,3.5-0.1,4.6-0.3c-1.1,2.2-2.6,4.1-4.4,5.6
		c1.5,0.9,3.7,1.6,6.5,2c-0.5,0.5-0.8,1.1-1,1.7c-2.7-0.8-4.9-1.7-6.6-2.8c-2,1.3-4.3,2.4-6.9,3.3c-0.2-0.6-0.5-1.1-1.1-1.6
		c2.6-0.5,4.9-1.4,6.9-2.6c-1-0.8-1.7-1.7-2.4-2.7l1-0.7C215.7,102,216.6,102.9,217.5,103.6z M221.1,111.6l-0.8,1.3
		c-2-1-4.3-1.8-6.8-2.5l0.7-1.4C216.4,109.7,218.7,110.6,221.1,111.6z M220.5,108.5l-0.8,1.1c-1.3-0.8-2.8-1.5-4.3-2l0.7-1.1
		C217.6,107.1,219.1,107.7,220.5,108.5z"/>
	<path class="st0" d="M237.6,102.2c0,1.5,0,2.9-0.1,4h7.2c1.4,0,2.5,0,3.4-0.1c-0.1,0.5-0.1,1-0.1,1.6v5.9c0,1.1,0,2.1,0.1,2.9h-1.9
		c0.1-0.8,0.2-1.8,0.2-2.9v-6h-8.9c-0.1,2-0.5,3.7-1,5c-0.5,1.3-1.6,2.7-3.2,4.2c-0.4-0.5-1-0.8-1.6-1c1.5-1.1,2.5-2,3.1-3
		c0.6-0.9,1-2.2,1.2-3.8c0.2-1.6,0.3-4,0.3-7.3s-0.1-5.6-0.4-6.8c0.7,0.1,1.5,0.2,2.2,0.3c0.2,0,0.3,0.1,0.3,0.2s-0.1,0.2-0.3,0.3
		c-0.1,0.1-0.2,0.4-0.3,1.1c0,0.7-0.1,2.1-0.1,4.2h6.7v-4c0-1.3-0.1-2.3-0.3-2.9c0.5,0.2,1.2,0.2,2.1,0.3c0.2,0,0.4,0.1,0.4,0.2
		s-0.1,0.2-0.2,0.3c-0.3,0.2-0.5,0.5-0.5,0.9v5.3c2.9,0,4.9,0,5.8-0.1v1.6c-1.1-0.1-3.2-0.1-6.5-0.1H237.6z"/>
	<path class="st0" d="M262.6,100.3c0,4.1-0.4,7.4-1.2,9.9c-0.8,2.5-2,4.5-3.8,6.2c-0.4-0.5-0.9-0.8-1.7-0.9c1.8-1.2,3.1-2.9,3.9-5.1
		c0.8-2.2,1.2-5.6,1.3-10.1c-2,0-3.4,0.1-4.2,0.2v-1.7c1,0.1,2.4,0.2,4.2,0.2c0-2.4-0.1-4-0.4-4.8c0.5,0.2,1.2,0.2,2,0.2
		c0.3,0,0.4,0.1,0.4,0.2s-0.1,0.3-0.3,0.5c-0.2,0.2-0.3,0.5-0.3,0.9c0,0.4,0,1.4,0,2.9c2.3,0,4-0.1,5.1-0.2l-0.4,12.1
		c0,1.4-0.2,2.4-0.4,3c-0.2,0.6-0.6,1-1.2,1.3c-0.6,0.2-1.5,0.4-2.9,0.6c0-0.6-0.2-1.2-0.8-1.8c1,0,1.7,0,2.1-0.1
		c0.4-0.1,0.8-0.2,1-0.4c0.2-0.2,0.4-0.5,0.4-0.9c0.1-0.4,0.1-1.1,0.2-2l0.4-10.2H262.6z M270.8,113.4v2.4h-1.6
		c0.1-1.2,0.2-2.4,0.2-3.5V99.9c0-0.9,0-1.6-0.2-2.2c1.4,0.1,2.7,0.2,4,0.2s2.6-0.1,3.9-0.2c-0.1,0.4-0.2,1.2-0.2,2.2v11.9
		c0,1.3,0.1,2.5,0.2,3.6h-1.6v-2H270.8z M275.5,112.1V99.2h-4.7v12.9H275.5z"/>
	<path class="st0" d="M283.6,100.5c-0.2,0.2-0.5,0.6-0.9,1c-0.4-0.4-0.9-0.7-1.6-0.9c2.2-1.8,3.9-4.1,5.1-7c0.5,0.3,1,0.5,1.4,0.6
		c0.4,0.1,0.6,0.2,0.6,0.3s-0.1,0.3-0.4,0.4s-0.7,0.6-1.2,1.4c3,0,4.8,0,5.3-0.2l-2.6,4.2c1,0,2.2-0.1,3.4-0.2
		c-0.1,0.7-0.2,1.8-0.2,3.2v10.8c0,0.7-0.1,1.1-0.2,1.4s-0.4,0.5-0.8,0.6c-0.4,0.1-1,0.2-1.9,0.3c0-0.7-0.2-1.3-0.5-1.6
		c0.4,0.1,0.7,0.1,1,0.1s0.5-0.1,0.7-0.2s0.2-0.5,0.2-1V110h-2.3c0,1.3,0.1,2.6,0.2,4h-1.7c0.1-1.4,0.1-2.7,0.1-4h-2.4
		c-0.1,2.7-0.8,4.8-2,6.4c-0.5-0.4-1-0.6-1.7-0.7c0.8-0.8,1.4-1.8,1.8-3c0.4-1.2,0.5-2.9,0.5-5.2V100.5z M285.9,97.5
		c-0.6,0.9-1.2,1.8-2,2.7c1,0.1,2.3,0.2,3.8,0.2l1.8-2.9H285.9z M284.9,104.5h2.4v-3h-2.4V104.5z M287.3,105.7h-2.4v3.2h2.4V105.7z
		 M288.7,104.5h2.3v-3h-2.3V104.5z M291,105.7h-2.3v3.2h2.3V105.7z M294.9,107.5l-0.9,1.7c-0.5-0.4-1-0.5-1.5-0.5
		c1.2-1.4,1.8-3,2-4.8c0.5,0.3,1,0.5,1.5,0.6c0.2,0.1,0.3,0.1,0.3,0.3c0,0.1-0.1,0.2-0.3,0.3c-0.2,0.1-0.4,0.5-0.7,1.2h2.5
		c0-1.8,0-2.8-0.1-3c0.6,0.1,1.2,0.2,1.7,0.2c0.2,0,0.3,0.1,0.3,0.2c0,0.1-0.1,0.2-0.2,0.3s-0.2,0.2-0.3,0.3c0,0.1-0.1,0.3-0.1,0.5
		v1.7c1.2,0,2.5,0,3.7-0.1v1.4c-1.1-0.1-2.3-0.1-3.7-0.1v3.1c2.2,0,3.8,0,4.6-0.1v1.5c-0.9-0.1-2.4-0.1-4.6-0.1
		c0,1.8,0.1,3.5,0.2,5.2h-1.9c0.2-1.7,0.2-3.4,0.2-5.2c-2.1,0-3.8,0-5.1,0.1v-1.5c1.3,0.1,3,0.1,5.1,0.1v-3.1H294.9z M296.5,96.9
		c-1.3,0-2.5,0-3.5,0.1v-1.4c1.3,0.1,2.7,0.2,4.4,0.2s3.5-0.1,5.5-0.2c-0.2,0.7-0.3,1.6-0.3,2.7l0,2.1c0,0.7-0.1,1.2-0.3,1.5
		c-0.2,0.3-0.5,0.5-1.1,0.7s-1.3,0.2-2.5,0.3c0-0.5-0.2-1-0.6-1.6c0.7,0.1,1.2,0.1,1.6,0.1s0.8-0.1,1-0.2c0.2-0.1,0.3-0.5,0.4-1
		l0.1-3.3h-3.2c-0.2,1.3-0.5,2.4-0.9,3.3c-0.4,0.9-1.1,1.8-2.2,2.9c-0.4-0.4-0.9-0.7-1.6-0.9c1-0.6,1.8-1.2,2.3-2
		C296.1,99.3,296.4,98.2,296.5,96.9z"/>
	<path class="st0" d="M314.4,106.9c0.1,0.1,0.3,0.2,0.6,0.2c0.3,0,1.2,0.1,2.7,0.1s2.6-0.1,3.3-0.2c0.7-0.1,1.2-0.4,1.4-0.7
		c0.2-0.4,0.4-1,0.5-2c0.5,0.4,1,0.7,1.6,0.9c-0.3,1.2-0.6,2-1.1,2.4c-0.5,0.4-1.2,0.6-2.4,0.7c-1.1,0.1-2.4,0.2-3.9,0.2
		s-2.5-0.1-3-0.2c-0.5-0.1-0.9-0.4-1.1-0.7c-1.6,0.7-3.4,1.3-5.5,1.8c-0.2-0.6-0.6-1-1.1-1.4c2-0.3,4.1-0.8,6.5-1.7v-3.2
		c0-1.2-0.1-2-0.2-2.3c0.2,0.1,0.9,0.1,1.9,0.1c0.2,0,0.3,0,0.3,0.1c0,0.1-0.1,0.2-0.3,0.3s-0.3,0.4-0.3,0.8v3.5
		c3.4-1.8,5.7-3.9,7.1-6.6c0.5,0.4,1,0.6,1.3,0.8s0.5,0.3,0.5,0.4c0,0.1-0.1,0.2-0.3,0.2c-0.4,0.1-1.1,0.7-2.1,1.8
		C319.2,104.1,317.1,105.7,314.4,106.9z M308.5,106.4l-1.4-0.9c1.6-1.5,2.6-3,3-4.5l1.4,0.8C310.8,103.2,309.8,104.7,308.5,106.4z
		 M318.4,96.7c4.8,0,7.9-0.1,9.4-0.2v4.9h-1.6v-3.6h-17.5v3.9h-1.6v-5.2c1.4,0.1,4.6,0.2,9.7,0.2c-0.3-0.7-0.8-1.4-1.5-2.2l1.4-0.7
		C317.4,94.6,317.9,95.6,318.4,96.7z M324.5,115.6h-10.4c-2.1,0-3.7,0.1-5,0.3c0.1-0.6,0.1-1.2,0.1-2v-1.5c0-0.9,0-1.5-0.1-2
		c0.4,0.1,0.8,0.2,1.4,0.2l0.6,0c0.2,0,0.2,0,0.2,0.1c0,0.1-0.1,0.1-0.2,0.2c-0.3,0.2-0.4,0.6-0.4,1v2.7h6.2v-3.1
		c0-0.8-0.1-1.5-0.2-2.1c0.5,0,0.8,0.1,1.2,0.1l0.8,0c0.2,0,0.3,0,0.3,0.1s0,0.2-0.1,0.3c-0.3,0.3-0.5,0.7-0.5,1.2v3.6h6.2v-2.6
		c0-1-0.1-1.7-0.2-2.1c0.6,0.1,1,0.1,1.4,0.1l0.4,0c0.1,0,0.2,0,0.2,0.1c0,0.1,0,0.2-0.1,0.3c-0.2,0.2-0.3,0.6-0.3,1.2v3.6
		c0,0.4,0,1,0.1,1.8h-1.5V115.6z M318.8,101.3l-1.1,1c-1.1-1.3-2.3-2.3-3.5-3.1l0.9-1C316.3,99.1,317.5,100.1,318.8,101.3z
		 M328.2,105.8l-1.2,0.9c-1-1.6-2.3-3.1-3.9-4.3l1-1C325.8,102.8,327.2,104.3,328.2,105.8z"/>
</g>
<g>
</g>
<g>
</g>
<g>
</g>
<g>
</g>
<g>
</g>
<g>
</g>
<g>
</g>
<g>
</g>
<g>
</g>
<g>
</g>
<g>
</g>
<g>
</g>
<g>
</g>
<g>
</g>
<g>
</g>
</svg>
